HIERARCHY
ROOT root
{
	OFFSET 0.000000 0.000000 0.000000
	CHANNELS 6 Xposition Yposition Zposition Zrotation Yrotation Xrotation
	JOINT lhip
	{
		OFFSET 0.058581 -0.082280 -0.017664
		CHANNELS 3 Zrotation Yrotation Xrotation
		JOINT lknee
		{
			OFFSET 0.043451 -0.386469 0.008037
			CHANNELS 3 Zrotation Yrotation Xrotation
			JOINT lankle
			{
				OFFSET -0.014790 -0.426874 -0.037428
				CHANNELS 3 Zrotation Yrotation Xrotation
				JOINT ltoe
				{
					OFFSET 0.041054 -0.060286 0.122042
					CHANNELS 3 Zrotation Yrotation Xrotation
					End Site
					{
						OFFSET 0.000000 0.000000 0.000000
					}
				}
			}
		}
	}
	JOINT rhip
	{
		OFFSET -0.060310 -0.090513 -0.013543
		CHANNELS 3 Zrotation Yrotation Xrotation
		JOINT rknee
		{
			OFFSET -0.043257 -0.383688 -0.004843
			CHANNELS 3 Zrotation Yrotation Xrotation
			JOINT rankle
			{
				OFFSET 0.019056 -0.420046 -0.034562
				CHANNELS 3 Zrotation Yrotation Xrotation
				JOINT rtoe
				{
					OFFSET -0.034840 -0.062106 0.130323
					CHANNELS 3 Zrotation Yrotation Xrotation
					End Site
					{
						OFFSET 0.000000 0.000000 0.000000
					}
				}
			}
		}
	}
	JOINT lowerback
	{
		OFFSET 0.004439 0.124404 -0.038385
		CHANNELS 3 Zrotation Yrotation Xrotation
		JOINT upperback
		{
			OFFSET 0.004488 0.137956 0.026820
			CHANNELS 3 Zrotation Yrotation Xrotation
			JOINT chest
			{
				OFFSET -0.002265 0.056032 0.002855
				CHANNELS 3 Zrotation Yrotation Xrotation
				JOINT lowerneck
				{
					OFFSET -0.013390 0.211636 -0.033468
					CHANNELS 3 Zrotation Yrotation Xrotation
					JOINT upperneck
					{
						OFFSET 0.010113 0.088937 0.050410
						CHANNELS 3 Zrotation Yrotation Xrotation
						End Site
						{
							OFFSET 0.000000 0.000000 0.000000
						}
					}
				}
				JOINT lclavicle
				{
					OFFSET 0.071702 0.114000 -0.018898
					CHANNELS 3 Zrotation Yrotation Xrotation
					JOINT lshoulder
					{
						OFFSET 0.122921 0.045205 -0.019046
						CHANNELS 3 Zrotation Yrotation Xrotation
						JOINT lelbow
						{
							OFFSET 0.255332 -0.015649 -0.022946
							CHANNELS 3 Zrotation Yrotation Xrotation
							JOINT lwrist
							{
								OFFSET 0.265709 0.012698 -0.007375
								CHANNELS 3 Zrotation Yrotation Xrotation
								End Site
								{
									OFFSET 0.000000 0.000000 0.000000
								}
							}
						}
					}
				}
				JOINT rclavicle
				{
					OFFSET -0.082954 0.112472 -0.023707
					CHANNELS 3 Zrotation Yrotation Xrotation
					JOINT rshoulder
					{
						OFFSET -0.113228 0.046853 -0.008472
						CHANNELS 3 Zrotation Yrotation Xrotation
						JOINT relbow
						{
							OFFSET -0.260127 -0.014369 -0.031269
							CHANNELS 3 Zrotation Yrotation Xrotation
							JOINT rwrist
							{
								OFFSET -0.269108 0.006794 -0.006027
								CHANNELS 3 Zrotation Yrotation Xrotation
								End Site
								{
									OFFSET 0.000000 0.000000 0.000000
								}
							}
						}
					}
				}
			}
		}
	}
}
MOTION
Frames: 10
Frame Time: 0.033333
-0.098822 0.271009 0.983732 88.192080 -0.230163 88.129275 1.790794 2.629135 3.596494 -1.431772 -4.430911 1.903955 3.667504 10.954454 -11.489773 0.000000 -0.000000 0.000000 -2.018426 -0.012340 -0.411799 -2.009522 7.850504 9.725627 3.051205 -4.099389 -13.068899 0.000000 -0.000000 0.000000 0.015760 0.512973 7.041225 -0.254653 0.495259 0.596032 -1.854327 0.440239 3.132082 3.312395 -0.337643 -13.016368 -0.730788 -9.512006 10.775070 -33.669276 5.412443 -3.546217 -48.061178 -5.343070 6.761249 9.233978 -24.814596 2.672125 0.600027 -1.973836 2.475885 32.446424 -2.053636 2.636982 47.485495 4.825005 15.420308 -12.612127 26.439425 0.501112 3.552680 3.162307 9.208343 
-0.098666 0.271292 0.983832 88.231132 -0.235609 88.181481 1.775450 2.587589 3.549360 -1.434191 -4.430088 1.936567 3.710089 10.958004 -11.460707 0.000000 -0.000000 0.000000 -2.024188 0.036391 -0.444939 -2.011204 7.793711 9.748144 3.137860 -4.107217 -13.067227 0.000000 -0.000000 0.000000 0.020385 0.496510 7.225682 -0.282484 0.524606 0.391771 -1.805970 0.374188 3.135508 3.317135 -0.456156 -12.805736 -0.757745 -9.355764 10.859486 -33.560054 5.527609 -3.450221 -48.136500 -5.342312 6.792174 9.229214 -24.767579 2.783193 0.526364 -1.904214 2.322074 32.451827 -2.285344 2.648724 47.472238 4.945432 15.492719 -12.543929 26.484415 0.631637 3.572642 3.070698 9.180536 
-0.098162 0.271606 0.984067 88.247759 -0.240420 88.228959 1.763500 2.586515 3.541840 -1.439336 -4.430329 1.936893 3.711368 10.955804 -11.462898 0.000000 -0.000000 0.000000 -2.030003 0.042723 -0.457003 -2.015549 7.793896 9.758577 3.138225 -4.108699 -13.067929 0.000000 -0.000000 0.000000 0.037301 0.503343 7.292440 -0.261664 0.536007 0.448639 -1.783701 0.384758 3.186896 3.316619 -0.456687 -12.793579 -0.759066 -9.355559 10.867146 -33.535894 5.538031 -3.443583 -48.115733 -5.334113 6.789433 9.239037 -24.767613 2.779746 0.528257 -1.900351 2.320589 32.440637 -2.289196 2.649399 47.474404 4.949790 15.492935 -12.543763 26.488329 0.631952 3.571340 3.069778 9.179552 
-0.099818 0.272143 0.984136 88.358387 -0.348361 88.415563 1.574025 2.460646 2.964929 -1.464527 -4.508540 2.382911 3.821845 11.012827 -11.431187 0.000000 -0.000000 0.000000 -1.997129 0.341505 -1.513991 -2.102962 7.744619 11.136986 3.273184 -4.392413 -13.231434 0.000000 -0.000000 0.000000 -0.140352 0.406516 7.763836 -0.262107 0.686693 0.364543 -1.703255 0.387073 3.351472 3.364253 -0.412930 -13.014672 -0.768413 -9.241854 10.934621 -33.325381 5.448906 -3.355164 -48.102681 -5.509733 6.909736 9.320671 -25.082055 2.726699 0.618791 -1.754172 2.171998 32.305898 -2.318309 2.696715 47.473436 5.194293 15.622485 -12.692155 26.755792 0.482763 3.529450 2.981347 9.085617 
-0.099289 0.272425 0.984428 88.392777 -0.349991 88.455642 1.540544 2.463385 2.934251 -1.475414 -4.519631 2.399838 3.823564 11.018150 -11.430224 0.000000 -0.000000 0.000000 -1.989885 0.373025 -1.615344 -2.110888 7.760085 11.220534 3.275713 -4.417018 -13.244102 0.000000 -0.000000 0.000000 -0.141734 0.410062 7.892858 -0.249735 0.704357 0.447325 -1.686888 0.398671 3.438223 3.371797 -0.409374 -12.990840 -0.775017 -9.237586 10.946883 -33.299658 5.474386 -3.342032 -48.082271 -5.506451 6.905358 9.329858 -25.086171 2.720589 0.620352 -1.755600 2.168873 32.312944 -2.303527 2.681661 47.486450 5.176762 15.645841 -12.697322 26.757598 0.482506 3.530403 2.979301 9.082022 
-0.105071 0.272185 0.984946 88.356469 -0.798008 88.813092 0.821000 2.414950 1.517991 -1.358199 -4.910789 3.602644 3.861301 11.548212 -11.590153 0.000000 -0.000000 0.000000 -1.772974 1.572315 -4.906674 -2.359835 8.115277 15.965648 3.854302 -5.746740 -14.462059 0.000000 -0.000000 0.000000 -1.128813 0.025262 8.843136 -0.221894 1.218009 0.102838 -1.503311 0.389441 3.612870 3.763083 0.187628 -14.087175 -1.077983 -9.363836 11.262647 -33.159393 5.466415 -3.581470 -47.779439 -5.877392 7.181240 9.272513 -25.797040 2.253467 1.132823 -1.879565 2.201892 32.698864 -1.765761 2.038885 47.362977 5.248111 16.211830 -12.989969 26.533738 -0.384395 3.345760 3.026631 9.355234 
-0.104117 0.272486 0.984624 88.382387 -0.892971 88.861834 0.698940 2.347068 1.369091 -1.359157 -4.964038 3.810169 3.960734 11.649452 -11.576089 0.000000 -0.000000 0.000000 -1.751415 1.788485 -5.307634 -2.419143 8.152982 16.579311 3.889229 -5.979321 -14.540492 0.000000 -0.000000 0.000000 -1.218376 -0.034064 9.156422 -0.295100 1.293215 -0.075917 -1.519018 0.353371 3.715253 3.843697 0.076461 -13.987176 -1.055402 -9.209713 11.243683 -32.990218 5.585475 -3.461378 -47.802041 -5.926520 7.199358 9.337788 -25.812321 2.293311 1.038589 -1.880466 2.044965 32.727405 -1.791244 2.007954 47.363063 5.284455 16.339644 -13.097658 26.592952 -0.385955 3.422561 2.907538 9.270126 
-0.106598 0.272283 0.983176 88.464895 -1.395073 88.916456 0.123227 1.891836 0.316459 -1.507375 -4.931305 5.422551 4.370814 12.005900 -11.987200 0.000000 -0.000000 0.000000 -1.791106 2.747005 -7.209289 -2.678499 8.255516 19.838851 4.068190 -6.922480 -15.270665 0.000000 -0.000000 0.000000 -2.000529 -0.196977 10.086425 -0.388363 1.471645 -0.328408 -1.417585 0.294618 4.090819 4.098267 0.231281 -14.920030 -1.041101 -9.202950 11.234793 -32.397001 5.342198 -3.299885 -47.916349 -6.274353 7.368890 9.535947 -26.081804 2.098470 1.066927 -1.987326 1.550079 32.589927 -1.644177 2.036519 47.632048 5.734597 16.689502 -13.520797 26.950622 -0.622410 3.483336 2.802555 9.012306 
-0.110317 0.271527 0.981702 88.879169 -1.974486 88.755674 -0.435498 1.184241 -1.194104 -1.924008 -4.998263 8.235282 4.654664 12.511433 -12.880400 0.000000 -0.000000 0.000000 -2.022810 3.582591 -8.558127 -2.668172 8.446201 22.615760 4.301564 -8.242796 -16.347288 0.000000 -0.000000 0.000000 -2.895365 -0.186011 11.135223 -0.493337 1.380642 -0.369429 -1.274144 0.022030 4.502568 4.337671 0.445639 -15.936351 -1.046127 -9.287775 11.086942 -31.702393 4.826497 -3.014833 -48.011136 -6.413992 7.558180 9.866338 -26.879283 2.078807 1.019623 -1.774137 1.066008 32.411320 -1.322652 2.062833 48.011915 6.080726 16.881976 -13.782975 27.683013 -0.910456 3.491243 2.640093 8.752802 
-0.112054 0.270505 0.978199 89.962144 -2.250558 88.325577 -0.613496 0.069852 -3.227825 -2.413501 -4.963458 12.512897 4.808687 12.691465 -14.136500 0.000000 -0.000000 0.000000 -2.038165 3.996293 -9.204635 -2.541725 8.430707 24.884922 4.446823 -9.198491 -17.292848 0.000000 -0.000000 0.000000 -3.186644 -0.144945 12.853813 -0.595397 0.849672 -0.755859 -1.276070 -0.333716 4.894268 4.428509 0.347780 -16.629255 -1.016414 -9.361455 11.071287 -31.127357 4.113557 -2.736499 -47.793513 -6.718496 7.530517 9.984681 -26.902436 2.176975 1.027377 -1.923675 0.877413 32.076357 -1.002047 2.083815 48.377769 6.193046 17.059673 -14.144246 28.223899 -0.763794 3.246567 2.812315 8.635926 
